<svg xmlns="http://www.w3.org/2000/svg" width="34.562" height="34.562" viewBox="0 0 34.562 34.562"><g data-name="Group 5779" transform="translate(293.874 -1573.773)"><rect data-name="Rectangle 2893" width="34.562" height="34.562" rx="5" transform="translate(-293.874 1573.773)"/><path data-name="Path 20" d="M-276.491 1582.002c-5.647 0-7.444 3.178-7.444 7.449v3.28c0 5.3 2.715 7.375 8.149 7.375a17.138 17.138 0 0 0 4.834-.669c.989-.282 1.094-.6 1.094-1.272v-.317c0-.881-.248-1.164-1.127-.916a19.033 19.033 0 0 1-4.8.67c-3.844 0-5.5-1.234-5.5-4.482v-4.444c0-3.07 1.764-4.3 4.764-4.3 2.93 0 4.764 1.234 4.764 4.3v1.157h-6.849a.458.458 0 0 0-.451.457v.84a.926.926 0 0 0 .925.927h7.508c.916 0 1.164-.178 1.269-1.094a14.515 14.515 0 0 0 .1-1.907c-.003-4.722-2.614-7.054-7.236-7.054z" fill="#e0bb08"/></g></svg>